<?xml version="1.0" standalone="no"?>
<!DOCTYPE svg PUBLIC "-//W3C//DTD SVG 20010904//EN"
 "http://www.w3.org/TR/2001/REC-SVG-20010904/DTD/svg10.dtd">
<svg version="1.0" xmlns="http://www.w3.org/2000/svg"
 width="1024.000000pt" height="1024.000000pt" viewBox="0 0 1024.000000 1024.000000"
 preserveAspectRatio="xMidYMid meet">

<g transform="translate(0.000000,1024.000000) scale(0.100000,-0.100000)"
fill="#000000" stroke="none">
<path d="M9200 7520 c-91 -4 -518 -11 -950 -14 -432 -4 -942 -12 -1135 -18
-192 -6 -447 -13 -565 -17 l-215 -6 360 -13 c198 -7 401 -17 450 -22 50 -5
195 -12 322 -16 128 -4 259 -12 290 -19 37 -8 48 -13 30 -14 -51 -2 -178 -32
-215 -51 -20 -10 -55 -21 -77 -25 -98 -15 -81 -40 35 -50 83 -7 186 -32 175
-43 -6 -7 -273 -22 -698 -40 -120 -5 -221 -12 -224 -16 -8 -8 -15 -7 122 -18
66 -5 645 -12 1286 -14 l1166 -4 50 97 c28 54 74 142 103 196 29 54 51 99 49
101 -10 9 -213 13 -359 6z"/>
<path d="M3630 7490 c-407 -25 -616 -86 -995 -290 -44 -23 -109 -58 -145 -78
-93 -49 -241 -137 -339 -200 -89 -57 -81 -55 -306 -87 -131 -19 -281 -48 -375
-73 -164 -44 -196 -53 -227 -67 -17 -8 -35 -15 -40 -15 -15 0 -156 -74 -214
-113 -69 -45 -149 -115 -149 -129 0 -23 82 -179 100 -188 24 -13 238 -28 505
-36 272 -8 452 5 610 46 66 17 147 37 180 45 105 24 308 74 360 89 179 50 495
95 495 69 0 -21 -105 -136 -176 -195 -90 -72 -199 -135 -260 -148 -27 -6 -105
-20 -174 -31 -69 -11 -159 -26 -200 -34 -41 -7 -118 -21 -170 -29 -52 -9 -124
-23 -160 -31 -235 -52 -287 -58 -505 -52 -115 3 -235 10 -265 16 -30 6 -102
17 -160 24 -58 8 -123 22 -144 32 -37 18 -128 116 -149 162 -13 30 -20 29 -58
-5 -29 -26 -31 -32 -40 -137 -5 -61 -8 -160 -8 -221 1 -61 -1 -116 -5 -123
-12 -18 -46 -149 -46 -174 0 -72 140 -113 480 -142 91 -8 217 -19 280 -24 152
-14 456 -28 884 -42 344 -10 457 -7 691 21 122 15 138 19 130 38 -13 33 -18
306 -6 372 49 284 125 461 255 593 74 76 128 108 222 132 68 17 73 17 138 0
119 -32 232 -138 294 -275 58 -129 67 -182 67 -403 l0 -208 30 5 c17 3 53 8
80 11 50 6 170 24 295 46 36 6 119 19 185 30 66 10 156 25 200 33 44 8 82 13
84 11 9 -10 -14 -25 -47 -30 -44 -7 -160 -32 -217 -47 -22 -6 -76 -17 -120
-24 l-80 -14 75 5 c222 13 880 78 1027 101 l31 5 5 157 c3 86 10 184 16 217
49 254 160 443 303 515 107 53 204 33 298 -60 57 -57 119 -168 140 -249 5 -22
14 -59 20 -80 5 -21 11 -70 12 -109 3 -78 6 -79 34 -7 16 43 19 76 19 225 -1
161 -3 182 -28 268 -33 113 -67 190 -111 256 -50 75 -75 95 -137 106 -49 9
-232 94 -269 124 -23 19 -212 127 -330 189 -209 108 -463 179 -765 213 -167
19 -896 28 -1125 14z m1300 -145 c255 -40 508 -153 644 -287 43 -43 48 -52 42
-80 -15 -76 -49 -91 -241 -108 -66 -6 -154 -15 -195 -20 -41 -5 -127 -14 -190
-20 -130 -11 -409 -37 -485 -44 -436 -41 -415 -40 -415 -25 0 7 16 37 36 68
20 31 47 72 59 91 191 301 238 361 309 395 90 44 270 56 436 30z m-620 -11 c0
-5 -22 -32 -116 -144 -12 -14 -55 -64 -95 -111 -41 -47 -93 -108 -115 -135
-23 -27 -53 -62 -67 -79 l-25 -30 -269 2 c-147 1 -324 6 -393 13 -69 6 -308
13 -532 17 -225 3 -408 9 -408 13 0 10 159 118 270 182 276 161 547 257 765
271 93 6 985 7 985 1z m-2890 -1559 c190 -8 374 -19 410 -24 64 -9 86 -19 328
-148 l83 -44 237 -10 c242 -10 252 -12 252 -52 0 -49 -179 -67 -740 -74 -457
-5 -608 0 -910 32 -156 16 -368 53 -386 67 -38 28 86 236 156 261 26 9 215 7
570 -8z"/>
<path d="M7405 7280 c-3 -5 -1 -10 4 -10 6 0 11 5 11 10 0 6 -2 10 -4 10 -3 0
-8 -4 -11 -10z"/>
<path d="M6468 7143 c7 -3 16 -2 19 1 4 3 -2 6 -13 5 -11 0 -14 -3 -6 -6z"/>
<path d="M8480 6830 c-272 -4 -531 -10 -575 -13 -44 -4 -326 -9 -628 -13 -301
-3 -550 -10 -553 -15 -3 -5 41 -9 98 -9 57 0 193 -6 303 -15 174 -12 341 -23
669 -42 93 -5 86 -22 -9 -23 -86 -1 -196 -18 -222 -35 -13 -9 -23 -26 -23 -39
0 -33 47 -53 155 -65 85 -10 118 -22 97 -35 -10 -6 -218 -20 -562 -37 -124 -6
-259 -14 -300 -18 l-75 -6 50 -8 c28 -4 505 -10 1060 -13 l1010 -7 64 109 c35
60 81 136 102 169 21 33 42 72 48 86 8 24 7 28 -12 33 -12 3 -62 5 -112 4 -49
-1 -313 -5 -585 -8z"/>
<path d="M5943 6469 c-84 -15 -162 -105 -210 -242 -21 -59 -26 -97 -31 -208
-7 -207 18 -312 100 -404 28 -33 113 -85 137 -85 6 0 -9 18 -32 40 -49 45 -88
111 -119 202 -30 85 -32 292 -5 383 20 69 60 149 91 184 25 28 92 60 121 57
90 -10 167 -83 214 -204 17 -42 30 -70 31 -62 0 14 -45 139 -69 190 -57 121
-127 167 -228 149z"/>
<path d="M3497 6288 c-140 -48 -239 -210 -282 -458 -20 -111 -19 -155 5 -271
38 -192 124 -307 253 -339 18 -5 43 -12 57 -16 17 -4 10 3 -20 23 -125 82
-197 229 -207 423 -12 222 35 386 139 490 35 35 63 51 106 65 57 17 62 17 111
0 55 -18 143 -81 161 -116 7 -11 14 -19 16 -16 10 10 -59 119 -101 159 -44 43
-113 77 -155 77 -14 0 -51 -10 -83 -21z"/>
<path d="M7750 6108 c-102 -4 -387 -11 -635 -14 -247 -4 -445 -8 -440 -10 6
-2 78 -8 160 -13 290 -19 440 -33 466 -42 l26 -10 -34 -34 c-23 -23 -31 -38
-26 -50 4 -12 0 -23 -12 -31 -17 -13 -15 -15 28 -34 26 -12 47 -25 47 -30 0
-4 -39 -11 -87 -15 -49 -3 -131 -10 -183 -15 -52 -5 -140 -12 -195 -15 -190
-11 -245 -17 -245 -27 0 -7 17 -8 47 -4 26 3 333 1 681 -5 595 -10 635 -9 653
7 10 9 19 21 19 25 0 5 34 77 75 160 41 83 75 155 75 160 0 10 -150 9 -420 -3z"/>
<path d="M5976 4836 c-11 -18 -13 -27 -4 -32 12 -8 38 22 38 43 0 21 -16 15
-34 -11z"/>
</g>
</svg>
